<svg xmlns="http://www.w3.org/2000/svg" viewBox="0 0 100 100">
<!-- SVG created with Arrow, by QuiverAI (https://quiver.ai) -->
  <style type="text/css">.cls-0 {fill:#020202;}</style>
  <path class="cls-0" d="m78.3 89.4h-23.3c-0.5-0.4-1-0.8-1.7-1.4h24.3v-1.4c0-1.6-1.3-3.5-3.4-3.5h-0.9v-18.9c0-5.2 1-5.9 0.7-7.4-0.3-1.6-1.2-2.4-1.1-3.2s1.9-2.3 1.9-3.1-1.9-2.3-1.9-3.2 1.3-2.5 1.2-3.7c-0.3-2-0.8-3.4-0.8-7.3v-19.6h1.1c1.7 0 3.2-1.5 3.2-3.2v-1.4h-24.4c0.6-0.6 1.2-1.1 1.8-1.5h23.3c0.4 0 1.2-0.4 1.2-0.9-0.1-0.6-0.6-1.3-1.2-1.3h-18.9c-5.2 0-8.3-4.8-9.2-7-0.1-0.3-0.4-0.3-0.5 0-0.9 2.2-3.9 7-9.2 7h-19c-0.5 0-1.2 0.6-1.2 1.3 0 0.5 0.8 0.9 1.2 0.9l23.3 0.1c0.6 0.4 1.1 0.9 1.7 1.5l-24.2-0.1v1.2c0 1.7 1.3 3.3 3.2 3.3h1.1v19.7c0 4.6-0.8 6.5-0.8 7.3 0 1.4 1.2 3 1.2 3.6 0.1 0.9-1.9 2.6-1.9 3.2 0 1 1.9 2.4 1.8 3.4 0 0.9-1.3 2.4-1.2 3.8 0.2 1.8 0.9 3.1 0.9 6.8v18.7h-0.9c-1.8 0-3.4 1.5-3.4 3.5v1.4h24.1c-0.5 0.6-1.1 1-1.6 1.4h-23.3c-0.4 0-1.3 0.6-1.3 1 0.1 0.5 0.6 1.2 1.2 1.2h18.8c5.5 0 8.3 4.4 9.5 7.2 0.1 0.3 0.4 0.3 0.5 0 0.9-2.1 3.9-7.2 9.3-7.2h18.8c0.6 0 1.1-0.7 1.2-1.2 0.1-0.4-0.7-1-1.2-1zm-31.6-80.2c1.2-0.9 2.4-2.1 3.2-3.5 0.8 1.3 2 2.6 3.1 3.5-1 0.7-2.4 2.4-3.1 3.8-0.8-1.4-2.2-2.9-3.2-3.8zm-17.3 73.9v-18.4c0-5.2 1-6.4 0.9-7.7-0.1-1.2-1.2-2.5-1.2-3.2 0-1.1 1.9-2.4 1.9-3.3 0-0.8-1.9-2.4-1.9-3.2 0-0.9 1.4-2.6 1.3-3.8-0.4-1.8-0.9-4-1-7.2v-19.7h3.1c-0.3 1.3-0.6 3.2-0.6 5.5 0.1 7.7 3.7 13.1 7.2 16.8s7.1 5.5 7.1 9.8c-0.1 5-7.3 7-11.8 16.3-2.5 4.9-3 10.5-1.9 18.1h-3.1zm5.4 0c-1-6.4-0.8-11.5 1.5-16.4 4.2-8.5 12-11.1 12-18 0-5.5-5.4-7.5-9.3-12.7-2.5-3.3-4.8-7.6-4.8-13.9 0-2.1 0.3-4 0.6-5.4h30.4c0.3 1.4 0.6 3.3 0.6 5.4-0.1 6.3-2.4 10.4-4.8 13.4-3.9 4.9-9.6 7.2-9.6 13.2 0 6.1 6.1 8.2 10.4 14.7 3.5 5.2 4.9 10.7 3.4 19.7h-30.4zm15.2 11.1c-0.8-1.3-2-2.5-3.3-3.4 1.2-0.9 2.4-2.3 3.2-3.8 0.7 1.4 2.1 2.8 3.1 3.8-1.1 0.7-2.4 2.2-3 3.4zm17.3-11.1c1.4-7.3 0.6-13.7-2.7-19.5-4.6-7.6-11.1-10.7-11.1-14.9 0-4.5 3.8-5.5 8-10.3 2.9-3.3 6.4-8.5 6.4-16.3 0-2-0.3-4.1-0.5-5.5h3.1v19.7c0 4.5-1 6.4-0.9 7.6s1.2 2.7 1.2 3.3c0.2 1-1.9 2.6-1.9 3.2 0 1 1.9 2.5 1.9 3.3 0 0.9-1.3 2.4-1.2 3.8 0.3 1.7 0.9 3.7 0.9 6.9v18.7h-3.2z"/>
  <path class="cls-0" d="m49.9 34.1c-4.4 0-8.9-1.9-9.9-2.2-0.4 0-0.7 0.4-0.6 0.7 0.7 1.7 4 4.9 5.6 6.3 3.1 2.7 5 5 5 10 0-4.4 1.9-6.6 4.4-8.7 1.7-1.4 5.1-4.4 6.4-7.5 0.1-0.4-0.2-0.8-0.5-1.4-1.7 0.3-5.4 2.7-10.4 2.8z"/>
  <path class="cls-0" d="m49.9 53.2c-0.5 0-1 0.4-1 0.9 0 0.6 0.5 1 1 1s0.9-0.4 0.9-1c0-0.5-0.4-0.9-0.9-0.9z"/>
  <circle class="cls-0" cx="49.9" cy="58.8" r="1.1"/>
  <path class="cls-0" d="m49.9 62.6c-0.6 0-1.2 0.5-1.2 1.2 0 0.6 0.6 1.2 1.3 1.2 0.6 0 1.1-0.6 1.1-1.2s-0.6-1.2-1.2-1.2z"/>
  <path class="cls-0" d="m50.1 68.1c-0.2-0.2-0.4-0.1-0.5 0-2.5 3.2-8.3 8.4-13 11.8-0.6 0.5-0.3 1.2 0.3 1.2h26.1c0.7 0 1-0.7 0.3-1.2-3.9-2.4-10.4-8.1-13.2-11.8z"/>
</svg>