<svg xmlns="http://www.w3.org/2000/svg" viewBox="0 0 1000 480" font-family="-apple-system,Segoe UI,Helvetica,Arial,sans-serif"><defs><linearGradient id="gA" x1="0" y1="0" x2="0" y2="1"><stop offset="0%" stop-color="#7c9cff" stop-opacity=".42"/><stop offset="55%" stop-color="#7c9cff" stop-opacity=".12"/><stop offset="100%" stop-color="#7c9cff" stop-opacity="0"/></linearGradient><linearGradient id="gS" x1="0" y1="0" x2="1" y2="0"><stop offset="0%" stop-color="#56e0c2"/><stop offset="100%" stop-color="#7c9cff"/></linearGradient></defs><rect width="1000" height="480" rx="16" fill="#0a0c12"/><text x="78" y="40" fill="#e9edf6" font-size="21" font-weight="700">Card implementation progress</text><text x="78" y="64" fill="#8b93a7" font-size="13">5,867 distinct cards · 2026-01-18 → 2026-06-21 · 125 active days · busiest day +755</text><rect x="604" y="30" width="18" height="3" rx="1.5" fill="#7c9cff"/><text x="628" y="36" fill="#8b93a7" font-size="12">Total implemented</text><rect x="764" y="27" width="9" height="9" rx="2" fill="#56e0c2" opacity=".7"/><text x="780" y="36" fill="#8b93a7" font-size="12">Added per day</text><line x1="78" y1="440.0" x2="922" y2="440.0" stroke="#1a1f2c"/><text x="68" y="444.0" fill="#9fb2ff" font-size="11" text-anchor="end">0</text><line x1="78" y1="382.0" x2="922" y2="382.0" stroke="#1a1f2c"/><text x="68" y="386.0" fill="#9fb2ff" font-size="11" text-anchor="end">1,000</text><line x1="78" y1="324.0" x2="922" y2="324.0" stroke="#1a1f2c"/><text x="68" y="328.0" fill="#9fb2ff" font-size="11" text-anchor="end">2,000</text><line x1="78" y1="266.0" x2="922" y2="266.0" stroke="#1a1f2c"/><text x="68" y="270.0" fill="#9fb2ff" font-size="11" text-anchor="end">3,000</text><line x1="78" y1="208.0" x2="922" y2="208.0" stroke="#1a1f2c"/><text x="68" y="212.0" fill="#9fb2ff" font-size="11" text-anchor="end">4,000</text><line x1="78" y1="150.0" x2="922" y2="150.0" stroke="#1a1f2c"/><text x="68" y="154.0" fill="#9fb2ff" font-size="11" text-anchor="end">5,000</text><line x1="78" y1="92.0" x2="922" y2="92.0" stroke="#1a1f2c"/><text x="68" y="96.0" fill="#9fb2ff" font-size="11" text-anchor="end">6,000</text><text x="932" y="444.0" fill="#56e0c2" font-size="11">0</text><text x="932" y="391.9" fill="#56e0c2" font-size="11">266</text><text x="932" y="339.9" fill="#56e0c2" font-size="11">532</text><text x="932" y="287.8" fill="#56e0c2" font-size="11">798</text><text x="78.0" y="466" fill="#5a6276" font-size="11" text-anchor="middle">Jan</text><text x="154.7" y="466" fill="#5a6276" font-size="11" text-anchor="middle">Feb</text><text x="308.2" y="466" fill="#5a6276" font-size="11" text-anchor="middle">Mar</text><text x="478.1" y="466" fill="#5a6276" font-size="11" text-anchor="middle">Apr</text><text x="642.5" y="466" fill="#5a6276" font-size="11" text-anchor="middle">May</text><text x="812.4" y="466" fill="#5a6276" font-size="11" text-anchor="middle">Jun</text><rect x="109.4" y="401.8" width="3.0" height="38.2" fill="#56e0c2" opacity=".7"/><rect x="153.2" y="433.9" width="3.0" height="6.1" fill="#56e0c2" opacity=".7"/><rect x="180.6" y="424.9" width="3.0" height="15.1" fill="#56e0c2" opacity=".7"/><rect x="186.1" y="431.4" width="3.0" height="8.6" fill="#56e0c2" opacity=".7"/><rect x="191.6" y="433.1" width="3.0" height="6.9" fill="#56e0c2" opacity=".7"/><rect x="197.1" y="437.3" width="3.0" height="2.7" fill="#56e0c2" opacity=".7"/><rect x="202.6" y="436.5" width="3.0" height="3.5" fill="#56e0c2" opacity=".7"/><rect x="208.0" y="435.9" width="3.0" height="4.1" fill="#56e0c2" opacity=".7"/><rect x="213.5" y="439.8" width="3.0" height="0.2" fill="#56e0c2" opacity=".7"/><rect x="219.0" y="433.5" width="3.0" height="6.5" fill="#56e0c2" opacity=".7"/><rect x="224.5" y="438.4" width="3.0" height="1.6" fill="#56e0c2" opacity=".7"/><rect x="230.0" y="433.9" width="3.0" height="6.1" fill="#56e0c2" opacity=".7"/><rect x="235.4" y="436.7" width="3.0" height="3.3" fill="#56e0c2" opacity=".7"/><rect x="246.4" y="439.8" width="3.0" height="0.2" fill="#56e0c2" opacity=".7"/><rect x="251.9" y="435.3" width="3.0" height="4.7" fill="#56e0c2" opacity=".7"/><rect x="257.4" y="435.7" width="3.0" height="4.3" fill="#56e0c2" opacity=".7"/><rect x="262.8" y="437.8" width="3.0" height="2.2" fill="#56e0c2" opacity=".7"/><rect x="268.3" y="439.0" width="3.0" height="1.0" fill="#56e0c2" opacity=".7"/><rect x="273.8" y="439.8" width="3.0" height="0.2" fill="#56e0c2" opacity=".7"/><rect x="279.3" y="435.9" width="3.0" height="4.1" fill="#56e0c2" opacity=".7"/><rect x="284.8" y="435.3" width="3.0" height="4.7" fill="#56e0c2" opacity=".7"/><rect x="290.2" y="434.7" width="3.0" height="5.3" fill="#56e0c2" opacity=".7"/><rect x="295.7" y="432.0" width="3.0" height="8.0" fill="#56e0c2" opacity=".7"/><rect x="301.2" y="432.8" width="3.0" height="7.2" fill="#56e0c2" opacity=".7"/><rect x="306.7" y="422.0" width="3.0" height="18.0" fill="#56e0c2" opacity=".7"/><rect x="312.2" y="432.8" width="3.0" height="7.2" fill="#56e0c2" opacity=".7"/><rect x="317.6" y="435.3" width="3.0" height="4.7" fill="#56e0c2" opacity=".7"/><rect x="323.1" y="433.7" width="3.0" height="6.3" fill="#56e0c2" opacity=".7"/><rect x="328.6" y="437.8" width="3.0" height="2.2" fill="#56e0c2" opacity=".7"/><rect x="334.1" y="433.9" width="3.0" height="6.1" fill="#56e0c2" opacity=".7"/><rect x="339.6" y="434.7" width="3.0" height="5.3" fill="#56e0c2" opacity=".7"/><rect x="345.0" y="433.5" width="3.0" height="6.5" fill="#56e0c2" opacity=".7"/><rect x="350.5" y="436.3" width="3.0" height="3.7" fill="#56e0c2" opacity=".7"/><rect x="356.0" y="438.2" width="3.0" height="1.8" fill="#56e0c2" opacity=".7"/><rect x="361.5" y="439.2" width="3.0" height="0.8" fill="#56e0c2" opacity=".7"/><rect x="367.0" y="418.7" width="3.0" height="21.3" fill="#56e0c2" opacity=".7"/><rect x="372.5" y="432.8" width="3.0" height="7.2" fill="#56e0c2" opacity=".7"/><rect x="377.9" y="435.5" width="3.0" height="4.5" fill="#56e0c2" opacity=".7"/><rect x="383.4" y="435.3" width="3.0" height="4.7" fill="#56e0c2" opacity=".7"/><rect x="388.9" y="438.8" width="3.0" height="1.2" fill="#56e0c2" opacity=".7"/><rect x="394.4" y="437.1" width="3.0" height="2.9" fill="#56e0c2" opacity=".7"/><rect x="399.9" y="434.1" width="3.0" height="5.9" fill="#56e0c2" opacity=".7"/><rect x="405.3" y="439.8" width="3.0" height="0.2" fill="#56e0c2" opacity=".7"/><rect x="410.8" y="436.7" width="3.0" height="3.3" fill="#56e0c2" opacity=".7"/><rect x="421.8" y="438.4" width="3.0" height="1.6" fill="#56e0c2" opacity=".7"/><rect x="427.3" y="439.4" width="3.0" height="0.6" fill="#56e0c2" opacity=".7"/><rect x="438.2" y="438.8" width="3.0" height="1.2" fill="#56e0c2" opacity=".7"/><rect x="443.7" y="437.7" width="3.0" height="2.3" fill="#56e0c2" opacity=".7"/><rect x="449.2" y="432.4" width="3.0" height="7.6" fill="#56e0c2" opacity=".7"/><rect x="454.7" y="432.0" width="3.0" height="8.0" fill="#56e0c2" opacity=".7"/><rect x="460.1" y="434.7" width="3.0" height="5.3" fill="#56e0c2" opacity=".7"/><rect x="465.6" y="433.3" width="3.0" height="6.7" fill="#56e0c2" opacity=".7"/><rect x="471.1" y="438.8" width="3.0" height="1.2" fill="#56e0c2" opacity=".7"/><rect x="482.1" y="435.5" width="3.0" height="4.5" fill="#56e0c2" opacity=".7"/><rect x="487.5" y="431.2" width="3.0" height="8.8" fill="#56e0c2" opacity=".7"/><rect x="493.0" y="439.4" width="3.0" height="0.6" fill="#56e0c2" opacity=".7"/><rect x="531.4" y="439.8" width="3.0" height="0.2" fill="#56e0c2" opacity=".7"/><rect x="536.9" y="436.5" width="3.0" height="3.5" fill="#56e0c2" opacity=".7"/><rect x="542.3" y="439.2" width="3.0" height="0.8" fill="#56e0c2" opacity=".7"/><rect x="547.8" y="439.8" width="3.0" height="0.2" fill="#56e0c2" opacity=".7"/><rect x="553.3" y="438.2" width="3.0" height="1.8" fill="#56e0c2" opacity=".7"/><rect x="558.8" y="437.5" width="3.0" height="2.5" fill="#56e0c2" opacity=".7"/><rect x="564.3" y="438.2" width="3.0" height="1.8" fill="#56e0c2" opacity=".7"/><rect x="569.7" y="438.0" width="3.0" height="2.0" fill="#56e0c2" opacity=".7"/><rect x="575.2" y="435.1" width="3.0" height="4.9" fill="#56e0c2" opacity=".7"/><rect x="580.7" y="438.0" width="3.0" height="2.0" fill="#56e0c2" opacity=".7"/><rect x="586.2" y="439.6" width="3.0" height="0.4" fill="#56e0c2" opacity=".7"/><rect x="591.7" y="438.0" width="3.0" height="2.0" fill="#56e0c2" opacity=".7"/><rect x="597.2" y="439.4" width="3.0" height="0.6" fill="#56e0c2" opacity=".7"/><rect x="602.6" y="436.7" width="3.0" height="3.3" fill="#56e0c2" opacity=".7"/><rect x="613.6" y="431.2" width="3.0" height="8.8" fill="#56e0c2" opacity=".7"/><rect x="619.1" y="436.7" width="3.0" height="3.3" fill="#56e0c2" opacity=".7"/><rect x="624.6" y="439.4" width="3.0" height="0.6" fill="#56e0c2" opacity=".7"/><rect x="630.0" y="433.7" width="3.0" height="6.3" fill="#56e0c2" opacity=".7"/><rect x="635.5" y="437.5" width="3.0" height="2.5" fill="#56e0c2" opacity=".7"/><rect x="641.0" y="434.3" width="3.0" height="5.7" fill="#56e0c2" opacity=".7"/><rect x="652.0" y="432.6" width="3.0" height="7.4" fill="#56e0c2" opacity=".7"/><rect x="657.4" y="432.2" width="3.0" height="7.8" fill="#56e0c2" opacity=".7"/><rect x="662.9" y="431.4" width="3.0" height="8.6" fill="#56e0c2" opacity=".7"/><rect x="668.4" y="435.7" width="3.0" height="4.3" fill="#56e0c2" opacity=".7"/><rect x="673.9" y="433.7" width="3.0" height="6.3" fill="#56e0c2" opacity=".7"/><rect x="679.4" y="434.3" width="3.0" height="5.7" fill="#56e0c2" opacity=".7"/><rect x="684.8" y="434.5" width="3.0" height="5.5" fill="#56e0c2" opacity=".7"/><rect x="690.3" y="432.8" width="3.0" height="7.2" fill="#56e0c2" opacity=".7"/><rect x="695.8" y="433.0" width="3.0" height="7.0" fill="#56e0c2" opacity=".7"/><rect x="701.3" y="436.1" width="3.0" height="3.9" fill="#56e0c2" opacity=".7"/><rect x="706.8" y="438.2" width="3.0" height="1.8" fill="#56e0c2" opacity=".7"/><rect x="712.2" y="434.7" width="3.0" height="5.3" fill="#56e0c2" opacity=".7"/><rect x="717.7" y="431.6" width="3.0" height="8.4" fill="#56e0c2" opacity=".7"/><rect x="723.2" y="436.9" width="3.0" height="3.1" fill="#56e0c2" opacity=".7"/><rect x="728.7" y="435.3" width="3.0" height="4.7" fill="#56e0c2" opacity=".7"/><rect x="734.2" y="436.5" width="3.0" height="3.5" fill="#56e0c2" opacity=".7"/><rect x="739.6" y="439.8" width="3.0" height="0.2" fill="#56e0c2" opacity=".7"/><rect x="745.1" y="439.4" width="3.0" height="0.6" fill="#56e0c2" opacity=".7"/><rect x="750.6" y="439.0" width="3.0" height="1.0" fill="#56e0c2" opacity=".7"/><rect x="756.1" y="438.4" width="3.0" height="1.6" fill="#56e0c2" opacity=".7"/><rect x="761.6" y="438.6" width="3.0" height="1.4" fill="#56e0c2" opacity=".7"/><rect x="767.0" y="439.6" width="3.0" height="0.4" fill="#56e0c2" opacity=".7"/><rect x="772.5" y="439.0" width="3.0" height="1.0" fill="#56e0c2" opacity=".7"/><rect x="778.0" y="426.9" width="3.0" height="13.1" fill="#56e0c2" opacity=".7"/><rect x="783.5" y="409.3" width="3.0" height="30.7" fill="#56e0c2" opacity=".7"/><rect x="789.0" y="431.6" width="3.0" height="8.4" fill="#56e0c2" opacity=".7"/><rect x="794.5" y="427.5" width="3.0" height="12.5" fill="#56e0c2" opacity=".7"/><rect x="799.9" y="389.9" width="3.0" height="50.1" fill="#56e0c2" opacity=".7"/><rect x="805.4" y="417.9" width="3.0" height="22.1" fill="#56e0c2" opacity=".7"/><rect x="810.9" y="420.8" width="3.0" height="19.2" fill="#56e0c2" opacity=".7"/><rect x="816.4" y="424.1" width="3.0" height="15.9" fill="#56e0c2" opacity=".7"/><rect x="821.9" y="428.5" width="3.0" height="11.5" fill="#56e0c2" opacity=".7"/><rect x="827.3" y="431.4" width="3.0" height="8.6" fill="#56e0c2" opacity=".7"/><rect x="832.8" y="439.6" width="3.0" height="0.4" fill="#56e0c2" opacity=".7"/><rect x="838.3" y="393.6" width="3.0" height="46.4" fill="#56e0c2" opacity=".7"/><rect x="843.8" y="359.7" width="3.0" height="80.3" fill="#56e0c2" opacity=".7"/><rect x="849.3" y="402.0" width="3.0" height="38.0" fill="#56e0c2" opacity=".7"/><rect x="854.7" y="436.1" width="3.0" height="3.9" fill="#56e0c2" opacity=".7"/><rect x="860.2" y="436.1" width="3.0" height="3.9" fill="#56e0c2" opacity=".7"/><rect x="865.7" y="438.2" width="3.0" height="1.8" fill="#56e0c2" opacity=".7"/><rect x="871.2" y="292.2" width="3.0" height="147.8" fill="#56e0c2" opacity=".7"/><rect x="876.7" y="411.8" width="3.0" height="28.2" fill="#56e0c2" opacity=".7"/><rect x="882.1" y="426.1" width="3.0" height="13.9" fill="#56e0c2" opacity=".7"/><rect x="887.6" y="395.0" width="3.0" height="45.0" fill="#56e0c2" opacity=".7"/><rect x="893.1" y="427.1" width="3.0" height="12.9" fill="#56e0c2" opacity=".7"/><rect x="898.6" y="432.6" width="3.0" height="7.4" fill="#56e0c2" opacity=".7"/><rect x="904.1" y="407.7" width="3.0" height="32.3" fill="#56e0c2" opacity=".7"/><rect x="909.5" y="404.0" width="3.0" height="36.0" fill="#56e0c2" opacity=".7"/><rect x="915.0" y="438.4" width="3.0" height="1.6" fill="#56e0c2" opacity=".7"/><path d="M 78.0 440.0 L 78.0 440.0 L 83.5 440.0 L 89.0 440.0 L 94.4 440.0 L 99.9 440.0 L 105.4 440.0 L 110.9 428.7 L 116.4 428.7 L 121.8 428.7 L 127.3 428.7 L 132.8 428.7 L 138.3 428.7 L 143.8 428.7 L 149.2 428.7 L 154.7 426.9 L 160.2 426.9 L 165.7 426.9 L 171.2 426.9 L 176.6 426.9 L 182.1 422.4 L 187.6 419.9 L 193.1 417.8 L 198.6 417.0 L 204.1 416.0 L 209.5 414.8 L 215.0 414.7 L 220.5 412.8 L 226.0 412.3 L 231.5 410.5 L 236.9 409.6 L 242.4 409.6 L 247.9 409.5 L 253.4 408.1 L 258.9 406.8 L 264.3 406.2 L 269.8 405.9 L 275.3 405.8 L 280.8 404.6 L 286.3 403.2 L 291.7 401.7 L 297.2 399.3 L 302.7 397.1 L 308.2 391.8 L 313.7 389.7 L 319.1 388.3 L 324.6 386.4 L 330.1 385.8 L 335.6 384.0 L 341.1 382.4 L 346.5 380.5 L 352.0 379.4 L 357.5 378.9 L 363.0 378.6 L 368.5 372.3 L 373.9 370.2 L 379.4 368.8 L 384.9 367.4 L 390.4 367.1 L 395.9 366.2 L 401.4 364.5 L 406.8 364.4 L 412.3 363.4 L 417.8 363.4 L 423.3 363.0 L 428.8 362.8 L 434.2 362.8 L 439.7 362.5 L 445.2 361.8 L 450.7 359.5 L 456.2 357.1 L 461.6 355.6 L 467.1 353.6 L 472.6 353.2 L 478.1 353.2 L 483.6 351.9 L 489.0 349.3 L 494.5 349.1 L 500.0 349.1 L 505.5 349.1 L 511.0 349.1 L 516.4 349.1 L 521.9 349.1 L 527.4 349.1 L 532.9 349.1 L 538.4 348.0 L 543.8 347.8 L 549.3 347.7 L 554.8 347.2 L 560.3 346.4 L 565.8 345.9 L 571.2 345.3 L 576.7 343.9 L 582.2 343.3 L 587.7 343.2 L 593.2 342.6 L 598.6 342.4 L 604.1 341.5 L 609.6 341.5 L 615.1 338.8 L 620.6 337.9 L 626.1 337.7 L 631.5 335.8 L 637.0 335.1 L 642.5 333.4 L 648.0 333.4 L 653.5 331.2 L 658.9 328.9 L 664.4 326.3 L 669.9 325.0 L 675.4 323.2 L 680.9 321.5 L 686.3 319.9 L 691.8 317.7 L 697.3 315.6 L 702.8 314.5 L 708.3 314.0 L 713.7 312.4 L 719.2 309.9 L 724.7 309.0 L 730.2 307.6 L 735.7 306.5 L 741.1 306.5 L 746.6 306.3 L 752.1 306.0 L 757.6 305.6 L 763.1 305.1 L 768.5 305.0 L 774.0 304.7 L 779.5 300.9 L 785.0 291.8 L 790.5 289.3 L 795.9 285.5 L 801.4 270.7 L 806.9 264.1 L 812.4 258.5 L 817.9 253.8 L 823.4 250.3 L 828.8 247.8 L 834.3 247.7 L 839.8 233.9 L 845.3 210.1 L 850.8 198.9 L 856.2 197.7 L 861.7 196.6 L 867.2 196.1 L 872.7 152.3 L 878.2 143.9 L 883.6 139.8 L 889.1 126.5 L 894.6 122.6 L 900.1 120.4 L 905.6 110.9 L 911.0 100.2 L 916.5 99.7 L 922.0 99.7 L 922.0 440.0 Z" fill="url(#gA)"/><path d="M 78.0 440.0 L 83.5 440.0 L 89.0 440.0 L 94.4 440.0 L 99.9 440.0 L 105.4 440.0 L 110.9 428.7 L 116.4 428.7 L 121.8 428.7 L 127.3 428.7 L 132.8 428.7 L 138.3 428.7 L 143.8 428.7 L 149.2 428.7 L 154.7 426.9 L 160.2 426.9 L 165.7 426.9 L 171.2 426.9 L 176.6 426.9 L 182.1 422.4 L 187.6 419.9 L 193.1 417.8 L 198.6 417.0 L 204.1 416.0 L 209.5 414.8 L 215.0 414.7 L 220.5 412.8 L 226.0 412.3 L 231.5 410.5 L 236.9 409.6 L 242.4 409.6 L 247.9 409.5 L 253.4 408.1 L 258.9 406.8 L 264.3 406.2 L 269.8 405.9 L 275.3 405.8 L 280.8 404.6 L 286.3 403.2 L 291.7 401.7 L 297.2 399.3 L 302.7 397.1 L 308.2 391.8 L 313.7 389.7 L 319.1 388.3 L 324.6 386.4 L 330.1 385.8 L 335.6 384.0 L 341.1 382.4 L 346.5 380.5 L 352.0 379.4 L 357.5 378.9 L 363.0 378.6 L 368.5 372.3 L 373.9 370.2 L 379.4 368.8 L 384.9 367.4 L 390.4 367.1 L 395.9 366.2 L 401.4 364.5 L 406.8 364.4 L 412.3 363.4 L 417.8 363.4 L 423.3 363.0 L 428.8 362.8 L 434.2 362.8 L 439.7 362.5 L 445.2 361.8 L 450.7 359.5 L 456.2 357.1 L 461.6 355.6 L 467.1 353.6 L 472.6 353.2 L 478.1 353.2 L 483.6 351.9 L 489.0 349.3 L 494.5 349.1 L 500.0 349.1 L 505.5 349.1 L 511.0 349.1 L 516.4 349.1 L 521.9 349.1 L 527.4 349.1 L 532.9 349.1 L 538.4 348.0 L 543.8 347.8 L 549.3 347.7 L 554.8 347.2 L 560.3 346.4 L 565.8 345.9 L 571.2 345.3 L 576.7 343.9 L 582.2 343.3 L 587.7 343.2 L 593.2 342.6 L 598.6 342.4 L 604.1 341.5 L 609.6 341.5 L 615.1 338.8 L 620.6 337.9 L 626.1 337.7 L 631.5 335.8 L 637.0 335.1 L 642.5 333.4 L 648.0 333.4 L 653.5 331.2 L 658.9 328.9 L 664.4 326.3 L 669.9 325.0 L 675.4 323.2 L 680.9 321.5 L 686.3 319.9 L 691.8 317.7 L 697.3 315.6 L 702.8 314.5 L 708.3 314.0 L 713.7 312.4 L 719.2 309.9 L 724.7 309.0 L 730.2 307.6 L 735.7 306.5 L 741.1 306.5 L 746.6 306.3 L 752.1 306.0 L 757.6 305.6 L 763.1 305.1 L 768.5 305.0 L 774.0 304.7 L 779.5 300.9 L 785.0 291.8 L 790.5 289.3 L 795.9 285.5 L 801.4 270.7 L 806.9 264.1 L 812.4 258.5 L 817.9 253.8 L 823.4 250.3 L 828.8 247.8 L 834.3 247.7 L 839.8 233.9 L 845.3 210.1 L 850.8 198.9 L 856.2 197.7 L 861.7 196.6 L 867.2 196.1 L 872.7 152.3 L 878.2 143.9 L 883.6 139.8 L 889.1 126.5 L 894.6 122.6 L 900.1 120.4 L 905.6 110.9 L 911.0 100.2 L 916.5 99.7 L 922.0 99.7" fill="none" stroke="url(#gS)" stroke-width="2.5" stroke-linejoin="round"/></svg>
