<svg xmlns="http://www.w3.org/2000/svg" viewBox="0 0 1000 480" font-family="-apple-system,Segoe UI,Helvetica,Arial,sans-serif"><defs><linearGradient id="gA" x1="0" y1="0" x2="0" y2="1"><stop offset="0%" stop-color="#7c9cff" stop-opacity=".42"/><stop offset="55%" stop-color="#7c9cff" stop-opacity=".12"/><stop offset="100%" stop-color="#7c9cff" stop-opacity="0"/></linearGradient><linearGradient id="gS" x1="0" y1="0" x2="1" y2="0"><stop offset="0%" stop-color="#56e0c2"/><stop offset="100%" stop-color="#7c9cff"/></linearGradient></defs><rect width="1000" height="480" rx="16" fill="#0a0c12"/><text x="78" y="40" fill="#e9edf6" font-size="21" font-weight="700">Card implementation progress</text><text x="78" y="64" fill="#8b93a7" font-size="13">6,370 distinct cards · 2026-01-18 → 2026-06-28 · 132 active days · busiest day +755</text><rect x="604" y="30" width="18" height="3" rx="1.5" fill="#7c9cff"/><text x="628" y="36" fill="#8b93a7" font-size="12">Total implemented</text><rect x="764" y="27" width="9" height="9" rx="2" fill="#56e0c2" opacity=".7"/><text x="780" y="36" fill="#8b93a7" font-size="12">Added per day</text><line x1="78" y1="440.0" x2="922" y2="440.0" stroke="#1a1f2c"/><text x="68" y="444.0" fill="#9fb2ff" font-size="11" text-anchor="end">0</text><line x1="78" y1="386.5" x2="922" y2="386.5" stroke="#1a1f2c"/><text x="68" y="390.5" fill="#9fb2ff" font-size="11" text-anchor="end">1,000</text><line x1="78" y1="332.9" x2="922" y2="332.9" stroke="#1a1f2c"/><text x="68" y="336.9" fill="#9fb2ff" font-size="11" text-anchor="end">2,000</text><line x1="78" y1="279.4" x2="922" y2="279.4" stroke="#1a1f2c"/><text x="68" y="283.4" fill="#9fb2ff" font-size="11" text-anchor="end">3,000</text><line x1="78" y1="225.8" x2="922" y2="225.8" stroke="#1a1f2c"/><text x="68" y="229.8" fill="#9fb2ff" font-size="11" text-anchor="end">4,000</text><line x1="78" y1="172.3" x2="922" y2="172.3" stroke="#1a1f2c"/><text x="68" y="176.3" fill="#9fb2ff" font-size="11" text-anchor="end">5,000</text><line x1="78" y1="118.8" x2="922" y2="118.8" stroke="#1a1f2c"/><text x="68" y="122.8" fill="#9fb2ff" font-size="11" text-anchor="end">6,000</text><text x="932" y="444.0" fill="#56e0c2" font-size="11">0</text><text x="932" y="391.9" fill="#56e0c2" font-size="11">266</text><text x="932" y="339.9" fill="#56e0c2" font-size="11">532</text><text x="932" y="287.8" fill="#56e0c2" font-size="11">798</text><text x="78.0" y="466" fill="#5a6276" font-size="11" text-anchor="middle">Jan</text><text x="151.4" y="466" fill="#5a6276" font-size="11" text-anchor="middle">Feb</text><text x="298.2" y="466" fill="#5a6276" font-size="11" text-anchor="middle">Mar</text><text x="460.7" y="466" fill="#5a6276" font-size="11" text-anchor="middle">Apr</text><text x="618.0" y="466" fill="#5a6276" font-size="11" text-anchor="middle">May</text><text x="780.5" y="466" fill="#5a6276" font-size="11" text-anchor="middle">Jun</text><rect x="108.0" y="401.8" width="2.9" height="38.2" fill="#56e0c2" opacity=".7"/><rect x="150.0" y="433.9" width="2.9" height="6.1" fill="#56e0c2" opacity=".7"/><rect x="176.2" y="424.9" width="2.9" height="15.1" fill="#56e0c2" opacity=".7"/><rect x="181.4" y="431.4" width="2.9" height="8.6" fill="#56e0c2" opacity=".7"/><rect x="186.7" y="433.1" width="2.9" height="6.9" fill="#56e0c2" opacity=".7"/><rect x="191.9" y="437.3" width="2.9" height="2.7" fill="#56e0c2" opacity=".7"/><rect x="197.1" y="436.5" width="2.9" height="3.5" fill="#56e0c2" opacity=".7"/><rect x="202.4" y="435.9" width="2.9" height="4.1" fill="#56e0c2" opacity=".7"/><rect x="207.6" y="439.8" width="2.9" height="0.2" fill="#56e0c2" opacity=".7"/><rect x="212.9" y="433.5" width="2.9" height="6.5" fill="#56e0c2" opacity=".7"/><rect x="218.1" y="438.4" width="2.9" height="1.6" fill="#56e0c2" opacity=".7"/><rect x="223.3" y="433.9" width="2.9" height="6.1" fill="#56e0c2" opacity=".7"/><rect x="228.6" y="436.7" width="2.9" height="3.3" fill="#56e0c2" opacity=".7"/><rect x="239.1" y="439.8" width="2.9" height="0.2" fill="#56e0c2" opacity=".7"/><rect x="244.3" y="435.3" width="2.9" height="4.7" fill="#56e0c2" opacity=".7"/><rect x="249.6" y="435.7" width="2.9" height="4.3" fill="#56e0c2" opacity=".7"/><rect x="254.8" y="437.8" width="2.9" height="2.2" fill="#56e0c2" opacity=".7"/><rect x="260.0" y="439.0" width="2.9" height="1.0" fill="#56e0c2" opacity=".7"/><rect x="265.3" y="439.8" width="2.9" height="0.2" fill="#56e0c2" opacity=".7"/><rect x="270.5" y="435.9" width="2.9" height="4.1" fill="#56e0c2" opacity=".7"/><rect x="275.8" y="435.3" width="2.9" height="4.7" fill="#56e0c2" opacity=".7"/><rect x="281.0" y="434.7" width="2.9" height="5.3" fill="#56e0c2" opacity=".7"/><rect x="286.3" y="432.0" width="2.9" height="8.0" fill="#56e0c2" opacity=".7"/><rect x="291.5" y="432.8" width="2.9" height="7.2" fill="#56e0c2" opacity=".7"/><rect x="296.7" y="422.0" width="2.9" height="18.0" fill="#56e0c2" opacity=".7"/><rect x="302.0" y="432.8" width="2.9" height="7.2" fill="#56e0c2" opacity=".7"/><rect x="307.2" y="435.3" width="2.9" height="4.7" fill="#56e0c2" opacity=".7"/><rect x="312.5" y="433.7" width="2.9" height="6.3" fill="#56e0c2" opacity=".7"/><rect x="317.7" y="437.8" width="2.9" height="2.2" fill="#56e0c2" opacity=".7"/><rect x="323.0" y="433.9" width="2.9" height="6.1" fill="#56e0c2" opacity=".7"/><rect x="328.2" y="434.7" width="2.9" height="5.3" fill="#56e0c2" opacity=".7"/><rect x="333.4" y="433.5" width="2.9" height="6.5" fill="#56e0c2" opacity=".7"/><rect x="338.7" y="436.3" width="2.9" height="3.7" fill="#56e0c2" opacity=".7"/><rect x="343.9" y="438.2" width="2.9" height="1.8" fill="#56e0c2" opacity=".7"/><rect x="349.2" y="439.2" width="2.9" height="0.8" fill="#56e0c2" opacity=".7"/><rect x="354.4" y="418.7" width="2.9" height="21.3" fill="#56e0c2" opacity=".7"/><rect x="359.6" y="432.8" width="2.9" height="7.2" fill="#56e0c2" opacity=".7"/><rect x="364.9" y="435.5" width="2.9" height="4.5" fill="#56e0c2" opacity=".7"/><rect x="370.1" y="435.3" width="2.9" height="4.7" fill="#56e0c2" opacity=".7"/><rect x="375.4" y="438.8" width="2.9" height="1.2" fill="#56e0c2" opacity=".7"/><rect x="380.6" y="437.1" width="2.9" height="2.9" fill="#56e0c2" opacity=".7"/><rect x="385.9" y="434.1" width="2.9" height="5.9" fill="#56e0c2" opacity=".7"/><rect x="391.1" y="439.8" width="2.9" height="0.2" fill="#56e0c2" opacity=".7"/><rect x="396.3" y="436.7" width="2.9" height="3.3" fill="#56e0c2" opacity=".7"/><rect x="406.8" y="438.4" width="2.9" height="1.6" fill="#56e0c2" opacity=".7"/><rect x="412.1" y="439.4" width="2.9" height="0.6" fill="#56e0c2" opacity=".7"/><rect x="422.6" y="438.8" width="2.9" height="1.2" fill="#56e0c2" opacity=".7"/><rect x="427.8" y="437.7" width="2.9" height="2.3" fill="#56e0c2" opacity=".7"/><rect x="433.0" y="432.4" width="2.9" height="7.6" fill="#56e0c2" opacity=".7"/><rect x="438.3" y="432.0" width="2.9" height="8.0" fill="#56e0c2" opacity=".7"/><rect x="443.5" y="434.7" width="2.9" height="5.3" fill="#56e0c2" opacity=".7"/><rect x="448.8" y="433.3" width="2.9" height="6.7" fill="#56e0c2" opacity=".7"/><rect x="454.0" y="438.8" width="2.9" height="1.2" fill="#56e0c2" opacity=".7"/><rect x="464.5" y="435.5" width="2.9" height="4.5" fill="#56e0c2" opacity=".7"/><rect x="469.7" y="431.2" width="2.9" height="8.8" fill="#56e0c2" opacity=".7"/><rect x="475.0" y="439.4" width="2.9" height="0.6" fill="#56e0c2" opacity=".7"/><rect x="511.7" y="439.8" width="2.9" height="0.2" fill="#56e0c2" opacity=".7"/><rect x="516.9" y="436.5" width="2.9" height="3.5" fill="#56e0c2" opacity=".7"/><rect x="522.2" y="439.2" width="2.9" height="0.8" fill="#56e0c2" opacity=".7"/><rect x="527.4" y="439.8" width="2.9" height="0.2" fill="#56e0c2" opacity=".7"/><rect x="532.6" y="438.2" width="2.9" height="1.8" fill="#56e0c2" opacity=".7"/><rect x="537.9" y="437.5" width="2.9" height="2.5" fill="#56e0c2" opacity=".7"/><rect x="543.1" y="438.2" width="2.9" height="1.8" fill="#56e0c2" opacity=".7"/><rect x="548.4" y="438.0" width="2.9" height="2.0" fill="#56e0c2" opacity=".7"/><rect x="553.6" y="435.1" width="2.9" height="4.9" fill="#56e0c2" opacity=".7"/><rect x="558.9" y="438.0" width="2.9" height="2.0" fill="#56e0c2" opacity=".7"/><rect x="564.1" y="439.6" width="2.9" height="0.4" fill="#56e0c2" opacity=".7"/><rect x="569.3" y="438.0" width="2.9" height="2.0" fill="#56e0c2" opacity=".7"/><rect x="574.6" y="439.4" width="2.9" height="0.6" fill="#56e0c2" opacity=".7"/><rect x="579.8" y="436.7" width="2.9" height="3.3" fill="#56e0c2" opacity=".7"/><rect x="590.3" y="431.2" width="2.9" height="8.8" fill="#56e0c2" opacity=".7"/><rect x="595.5" y="436.7" width="2.9" height="3.3" fill="#56e0c2" opacity=".7"/><rect x="600.8" y="439.4" width="2.9" height="0.6" fill="#56e0c2" opacity=".7"/><rect x="606.0" y="433.7" width="2.9" height="6.3" fill="#56e0c2" opacity=".7"/><rect x="611.3" y="437.5" width="2.9" height="2.5" fill="#56e0c2" opacity=".7"/><rect x="616.5" y="434.3" width="2.9" height="5.7" fill="#56e0c2" opacity=".7"/><rect x="627.0" y="432.6" width="2.9" height="7.4" fill="#56e0c2" opacity=".7"/><rect x="632.2" y="432.2" width="2.9" height="7.8" fill="#56e0c2" opacity=".7"/><rect x="637.5" y="431.4" width="2.9" height="8.6" fill="#56e0c2" opacity=".7"/><rect x="642.7" y="435.7" width="2.9" height="4.3" fill="#56e0c2" opacity=".7"/><rect x="648.0" y="433.7" width="2.9" height="6.3" fill="#56e0c2" opacity=".7"/><rect x="653.2" y="434.3" width="2.9" height="5.7" fill="#56e0c2" opacity=".7"/><rect x="658.5" y="434.5" width="2.9" height="5.5" fill="#56e0c2" opacity=".7"/><rect x="663.7" y="432.8" width="2.9" height="7.2" fill="#56e0c2" opacity=".7"/><rect x="668.9" y="433.0" width="2.9" height="7.0" fill="#56e0c2" opacity=".7"/><rect x="674.2" y="436.1" width="2.9" height="3.9" fill="#56e0c2" opacity=".7"/><rect x="679.4" y="438.2" width="2.9" height="1.8" fill="#56e0c2" opacity=".7"/><rect x="684.7" y="434.7" width="2.9" height="5.3" fill="#56e0c2" opacity=".7"/><rect x="689.9" y="431.6" width="2.9" height="8.4" fill="#56e0c2" opacity=".7"/><rect x="695.2" y="436.9" width="2.9" height="3.1" fill="#56e0c2" opacity=".7"/><rect x="700.4" y="435.3" width="2.9" height="4.7" fill="#56e0c2" opacity=".7"/><rect x="705.6" y="436.5" width="2.9" height="3.5" fill="#56e0c2" opacity=".7"/><rect x="710.9" y="439.8" width="2.9" height="0.2" fill="#56e0c2" opacity=".7"/><rect x="716.1" y="439.4" width="2.9" height="0.6" fill="#56e0c2" opacity=".7"/><rect x="721.4" y="439.0" width="2.9" height="1.0" fill="#56e0c2" opacity=".7"/><rect x="726.6" y="438.4" width="2.9" height="1.6" fill="#56e0c2" opacity=".7"/><rect x="731.8" y="438.6" width="2.9" height="1.4" fill="#56e0c2" opacity=".7"/><rect x="737.1" y="439.6" width="2.9" height="0.4" fill="#56e0c2" opacity=".7"/><rect x="742.3" y="439.0" width="2.9" height="1.0" fill="#56e0c2" opacity=".7"/><rect x="747.6" y="426.9" width="2.9" height="13.1" fill="#56e0c2" opacity=".7"/><rect x="752.8" y="409.3" width="2.9" height="30.7" fill="#56e0c2" opacity=".7"/><rect x="758.1" y="431.6" width="2.9" height="8.4" fill="#56e0c2" opacity=".7"/><rect x="763.3" y="427.5" width="2.9" height="12.5" fill="#56e0c2" opacity=".7"/><rect x="768.5" y="389.9" width="2.9" height="50.1" fill="#56e0c2" opacity=".7"/><rect x="773.8" y="417.9" width="2.9" height="22.1" fill="#56e0c2" opacity=".7"/><rect x="779.0" y="420.8" width="2.9" height="19.2" fill="#56e0c2" opacity=".7"/><rect x="784.3" y="424.1" width="2.9" height="15.9" fill="#56e0c2" opacity=".7"/><rect x="789.5" y="428.5" width="2.9" height="11.5" fill="#56e0c2" opacity=".7"/><rect x="794.8" y="431.4" width="2.9" height="8.6" fill="#56e0c2" opacity=".7"/><rect x="800.0" y="439.6" width="2.9" height="0.4" fill="#56e0c2" opacity=".7"/><rect x="805.2" y="393.6" width="2.9" height="46.4" fill="#56e0c2" opacity=".7"/><rect x="810.5" y="359.7" width="2.9" height="80.3" fill="#56e0c2" opacity=".7"/><rect x="815.7" y="402.0" width="2.9" height="38.0" fill="#56e0c2" opacity=".7"/><rect x="821.0" y="436.1" width="2.9" height="3.9" fill="#56e0c2" opacity=".7"/><rect x="826.2" y="436.1" width="2.9" height="3.9" fill="#56e0c2" opacity=".7"/><rect x="831.4" y="438.2" width="2.9" height="1.8" fill="#56e0c2" opacity=".7"/><rect x="836.7" y="292.2" width="2.9" height="147.8" fill="#56e0c2" opacity=".7"/><rect x="841.9" y="411.8" width="2.9" height="28.2" fill="#56e0c2" opacity=".7"/><rect x="847.2" y="426.1" width="2.9" height="13.9" fill="#56e0c2" opacity=".7"/><rect x="852.4" y="395.0" width="2.9" height="45.0" fill="#56e0c2" opacity=".7"/><rect x="857.7" y="427.1" width="2.9" height="12.9" fill="#56e0c2" opacity=".7"/><rect x="862.9" y="432.6" width="2.9" height="7.4" fill="#56e0c2" opacity=".7"/><rect x="868.1" y="397.9" width="2.9" height="42.1" fill="#56e0c2" opacity=".7"/><rect x="873.4" y="402.4" width="2.9" height="37.6" fill="#56e0c2" opacity=".7"/><rect x="878.6" y="438.4" width="2.9" height="1.6" fill="#56e0c2" opacity=".7"/><rect x="883.9" y="425.7" width="2.9" height="14.3" fill="#56e0c2" opacity=".7"/><rect x="889.1" y="438.0" width="2.9" height="2.0" fill="#56e0c2" opacity=".7"/><rect x="899.6" y="424.9" width="2.9" height="15.1" fill="#56e0c2" opacity=".7"/><rect x="904.8" y="433.3" width="2.9" height="6.7" fill="#56e0c2" opacity=".7"/><rect x="910.1" y="412.4" width="2.9" height="27.6" fill="#56e0c2" opacity=".7"/><rect x="915.3" y="426.5" width="2.9" height="13.5" fill="#56e0c2" opacity=".7"/><rect x="920.6" y="432.0" width="2.9" height="8.0" fill="#56e0c2" opacity=".7"/><path d="M 78.0 440.0 L 78.0 440.0 L 83.2 440.0 L 88.5 440.0 L 93.7 440.0 L 99.0 440.0 L 104.2 440.0 L 109.5 429.6 L 114.7 429.6 L 119.9 429.6 L 125.2 429.6 L 130.4 429.6 L 135.7 429.6 L 140.9 429.6 L 146.1 429.6 L 151.4 427.9 L 156.6 427.9 L 161.9 427.9 L 167.1 427.9 L 172.4 427.9 L 177.6 423.8 L 182.8 421.4 L 188.1 419.5 L 193.3 418.8 L 198.6 417.8 L 203.8 416.7 L 209.1 416.7 L 214.3 414.9 L 219.5 414.5 L 224.8 412.8 L 230.0 411.9 L 235.3 411.9 L 240.5 411.8 L 245.8 410.6 L 251.0 409.4 L 256.2 408.8 L 261.5 408.5 L 266.7 408.5 L 272.0 407.3 L 277.2 406.1 L 282.4 404.6 L 287.7 402.4 L 292.9 400.4 L 298.2 395.5 L 303.4 393.5 L 308.7 392.2 L 313.9 390.5 L 319.1 389.9 L 324.4 388.3 L 329.6 386.8 L 334.9 385.1 L 340.1 384.1 L 345.4 383.6 L 350.6 383.4 L 355.8 377.5 L 361.1 375.5 L 366.3 374.3 L 371.6 373.0 L 376.8 372.7 L 382.0 371.9 L 387.3 370.3 L 392.5 370.2 L 397.8 369.3 L 403.0 369.3 L 408.3 368.9 L 413.5 368.7 L 418.7 368.7 L 424.0 368.4 L 429.2 367.8 L 434.5 365.7 L 439.7 363.5 L 445.0 362.0 L 450.2 360.2 L 455.4 359.9 L 460.7 359.9 L 465.9 358.7 L 471.2 356.3 L 476.4 356.1 L 481.7 356.1 L 486.9 356.1 L 492.1 356.1 L 497.4 356.1 L 502.6 356.1 L 507.9 356.1 L 513.1 356.1 L 518.3 355.1 L 523.6 354.9 L 528.8 354.8 L 534.1 354.3 L 539.3 353.6 L 544.6 353.2 L 549.8 352.6 L 555.0 351.3 L 560.3 350.8 L 565.5 350.6 L 570.8 350.1 L 576.0 349.9 L 581.3 349.0 L 586.5 349.0 L 591.7 346.6 L 597.0 345.7 L 602.2 345.6 L 607.5 343.8 L 612.7 343.1 L 618.0 341.6 L 623.2 341.6 L 628.4 339.6 L 633.7 337.4 L 638.9 335.1 L 644.2 333.9 L 649.4 332.2 L 654.6 330.6 L 659.9 329.1 L 665.1 327.1 L 670.4 325.2 L 675.6 324.1 L 680.9 323.7 L 686.1 322.2 L 691.3 319.9 L 696.6 319.1 L 701.8 317.8 L 707.1 316.8 L 712.3 316.8 L 717.6 316.6 L 722.8 316.3 L 728.0 315.9 L 733.3 315.5 L 738.5 315.4 L 743.8 315.1 L 749.0 311.6 L 754.2 303.2 L 759.5 300.9 L 764.7 297.4 L 770.0 283.7 L 775.2 277.7 L 780.5 272.4 L 785.7 268.1 L 790.9 264.9 L 796.2 262.6 L 801.4 262.5 L 806.7 249.8 L 811.9 227.8 L 817.2 217.4 L 822.4 216.4 L 827.6 215.3 L 832.9 214.8 L 838.1 174.4 L 843.4 166.7 L 848.6 162.9 L 853.9 150.6 L 859.1 147.0 L 864.3 145.0 L 869.6 133.5 L 874.8 123.2 L 880.1 122.8 L 885.3 118.9 L 890.5 118.3 L 895.8 118.3 L 901.0 114.2 L 906.3 112.4 L 911.5 104.8 L 916.8 101.2 L 922.0 99.0 L 922.0 440.0 Z" fill="url(#gA)"/><path d="M 78.0 440.0 L 83.2 440.0 L 88.5 440.0 L 93.7 440.0 L 99.0 440.0 L 104.2 440.0 L 109.5 429.6 L 114.7 429.6 L 119.9 429.6 L 125.2 429.6 L 130.4 429.6 L 135.7 429.6 L 140.9 429.6 L 146.1 429.6 L 151.4 427.9 L 156.6 427.9 L 161.9 427.9 L 167.1 427.9 L 172.4 427.9 L 177.6 423.8 L 182.8 421.4 L 188.1 419.5 L 193.3 418.8 L 198.6 417.8 L 203.8 416.7 L 209.1 416.7 L 214.3 414.9 L 219.5 414.5 L 224.8 412.8 L 230.0 411.9 L 235.3 411.9 L 240.5 411.8 L 245.8 410.6 L 251.0 409.4 L 256.2 408.8 L 261.5 408.5 L 266.7 408.5 L 272.0 407.3 L 277.2 406.1 L 282.4 404.6 L 287.7 402.4 L 292.9 400.4 L 298.2 395.5 L 303.4 393.5 L 308.7 392.2 L 313.9 390.5 L 319.1 389.9 L 324.4 388.3 L 329.6 386.8 L 334.9 385.1 L 340.1 384.1 L 345.4 383.6 L 350.6 383.4 L 355.8 377.5 L 361.1 375.5 L 366.3 374.3 L 371.6 373.0 L 376.8 372.7 L 382.0 371.9 L 387.3 370.3 L 392.5 370.2 L 397.8 369.3 L 403.0 369.3 L 408.3 368.9 L 413.5 368.7 L 418.7 368.7 L 424.0 368.4 L 429.2 367.8 L 434.5 365.7 L 439.7 363.5 L 445.0 362.0 L 450.2 360.2 L 455.4 359.9 L 460.7 359.9 L 465.9 358.7 L 471.2 356.3 L 476.4 356.1 L 481.7 356.1 L 486.9 356.1 L 492.1 356.1 L 497.4 356.1 L 502.6 356.1 L 507.9 356.1 L 513.1 356.1 L 518.3 355.1 L 523.6 354.9 L 528.8 354.8 L 534.1 354.3 L 539.3 353.6 L 544.6 353.2 L 549.8 352.6 L 555.0 351.3 L 560.3 350.8 L 565.5 350.6 L 570.8 350.1 L 576.0 349.9 L 581.3 349.0 L 586.5 349.0 L 591.7 346.6 L 597.0 345.7 L 602.2 345.6 L 607.5 343.8 L 612.7 343.1 L 618.0 341.6 L 623.2 341.6 L 628.4 339.6 L 633.7 337.4 L 638.9 335.1 L 644.2 333.9 L 649.4 332.2 L 654.6 330.6 L 659.9 329.1 L 665.1 327.1 L 670.4 325.2 L 675.6 324.1 L 680.9 323.7 L 686.1 322.2 L 691.3 319.9 L 696.6 319.1 L 701.8 317.8 L 707.1 316.8 L 712.3 316.8 L 717.6 316.6 L 722.8 316.3 L 728.0 315.9 L 733.3 315.5 L 738.5 315.4 L 743.8 315.1 L 749.0 311.6 L 754.2 303.2 L 759.5 300.9 L 764.7 297.4 L 770.0 283.7 L 775.2 277.7 L 780.5 272.4 L 785.7 268.1 L 790.9 264.9 L 796.2 262.6 L 801.4 262.5 L 806.7 249.8 L 811.9 227.8 L 817.2 217.4 L 822.4 216.4 L 827.6 215.3 L 832.9 214.8 L 838.1 174.4 L 843.4 166.7 L 848.6 162.9 L 853.9 150.6 L 859.1 147.0 L 864.3 145.0 L 869.6 133.5 L 874.8 123.2 L 880.1 122.8 L 885.3 118.9 L 890.5 118.3 L 895.8 118.3 L 901.0 114.2 L 906.3 112.4 L 911.5 104.8 L 916.8 101.2 L 922.0 99.0" fill="none" stroke="url(#gS)" stroke-width="2.5" stroke-linejoin="round"/></svg>
